# xmcd
#
# Track frame offsets:
#	150
#	10361
#	24263
#	37089
#	52410
#	65814
#	76658
#	94140
#	106559
#	123169
#	133353
#	146458
#	155861
#	173561
#
# Disc length: 2576 seconds
#
# Revision: 1
# Processed by: cddbd v1.5.2PL0 Copyright (c) Steve Scherf et al.
# Submitted via: audiograbber 1.83.01
#
DISCID=bd0a0e0e
DTITLE=Various Artist - Hillcrest #39
DYEAR=2007
DGENRE=Country
TTITLE0=Arly Karlsen - A Hold on You
TTITLE1=William Ray - I Wouldn't Trade My Shamrock
TTITLE2=Shaza Leigh - Teach Your Children
TTITLE3=Paul Street - Breathe Love In 
TTITLE4=Ann Pascoe - Grandma's Apron
TTITLE5=Jeff Chance - Soft Eyes
TTITLE6=Declean Nerney - Blue Side of Lonesome
TTITLE7=Brad D. Kepler - Go Tell It On The Mountain
TTITLE8=Debbie Bergeron - The Gift
TTITLE9=Brian Dolph - Cedrid The Christmas Elf
TTITLE10=George Hamilton IV - I Wish Everyday Could Be Like Christmas
TTITLE11=Kathy Kane - Big Kids Little Kids
TTITLE12=Glenn Reid - This Christmas Time
TTITLE13=Marcus Tribble - The Year I Saw Santa Claus
EXTD=
EXTT0=
EXTT1=
EXTT2=
EXTT3=
EXTT4=
EXTT5=
EXTT6=
EXTT7=
EXTT8=
EXTT9=
EXTT10=
EXTT11=
EXTT12=
EXTT13=
PLAYORDER=
